<?xml version="1.0" encoding="utf-8"?>
<svg width="3456" height="2560" viewBox="0 0 3456 2560" version="1.1" xmlns="http://www.w3.org/2000/svg">
  <desc>test_spritesheet.blend, (Blender 2.82 (sub 7))</desc>
  <polygon stroke="black" stroke-width="1" fill="rgb(204, 204, 204)" fill-opacity="0.25" points="0 128 128 128 128 0 0 0"/>
  <polygon stroke="black" stroke-width="1" fill="rgb(204, 204, 204)" fill-opacity="0.25" points="384.000,2560.000 768.000,2560.000 768.000,2275.556 384.000,2275.556 "/>
  <polygon stroke="black" stroke-width="1" fill="rgb(204, 204, 204)" fill-opacity="0.25" points="768.000,2560.000 1152.000,2560.000 1152.000,2275.556 768.000,2275.556 "/>
  <polygon stroke="black" stroke-width="1" fill="rgb(204, 204, 204)" fill-opacity="0.25" points="1152.000,2560.000 1536.000,2560.000 1536.000,2275.556 1152.000,2275.556 "/>
  <polygon stroke="black" stroke-width="1" fill="rgb(204, 204, 204)" fill-opacity="0.25" points="1536.000,2560.000 1920.000,2560.000 1920.000,2275.556 1536.000,2275.556 "/>
  <polygon stroke="black" stroke-width="1" fill="rgb(204, 204, 204)" fill-opacity="0.25" points="1920.000,2560.000 2304.000,2560.000 2304.000,2275.556 1920.000,2275.556 "/>
  <polygon stroke="black" stroke-width="1" fill="rgb(204, 204, 204)" fill-opacity="0.25" points="2304.000,2560.000 2688.000,2560.000 2688.000,2275.556 2304.000,2275.556 "/>
  <polygon stroke="black" stroke-width="1" fill="rgb(204, 204, 204)" fill-opacity="0.25" points="2688.000,2560.000 3072.000,2560.000 3072.000,2275.556 2688.000,2275.556 "/>
  <polygon stroke="black" stroke-width="1" fill="rgb(204, 204, 204)" fill-opacity="0.25" points="3072.000,2560.000 3456.000,2560.000 3456.000,2275.556 3072.000,2275.556 "/>
  <polygon stroke="black" stroke-width="1" fill="rgb(204, 204, 204)" fill-opacity="0.25" points="0.000,2275.556 384.000,2275.556 384.000,1991.111 0.000,1991.111 "/>
  <polygon stroke="black" stroke-width="1" fill="rgb(204, 204, 204)" fill-opacity="0.25" points="384.000,2275.556 768.000,2275.556 768.000,1991.111 384.000,1991.111 "/>
  <polygon stroke="black" stroke-width="1" fill="rgb(204, 204, 204)" fill-opacity="0.25" points="768.000,2275.556 1152.000,2275.556 1152.000,1991.111 768.000,1991.111 "/>
  <polygon stroke="black" stroke-width="1" fill="rgb(204, 204, 204)" fill-opacity="0.25" points="1152.000,2275.556 1536.000,2275.556 1536.000,1991.111 1152.000,1991.111 "/>
  <polygon stroke="black" stroke-width="1" fill="rgb(204, 204, 204)" fill-opacity="0.25" points="1536.000,2275.556 1920.000,2275.556 1920.000,1991.111 1536.000,1991.111 "/>
  <polygon stroke="black" stroke-width="1" fill="rgb(204, 204, 204)" fill-opacity="0.25" points="1920.000,2275.556 2304.000,2275.556 2304.000,1991.111 1920.000,1991.111 "/>
  <polygon stroke="black" stroke-width="1" fill="rgb(204, 204, 204)" fill-opacity="0.25" points="2304.000,2275.556 2688.000,2275.556 2688.000,1991.111 2304.000,1991.111 "/>
  <polygon stroke="black" stroke-width="1" fill="rgb(204, 204, 204)" fill-opacity="0.25" points="2688.000,2275.556 3072.000,2275.556 3072.000,1991.111 2688.000,1991.111 "/>
  <polygon stroke="black" stroke-width="1" fill="rgb(204, 204, 204)" fill-opacity="0.25" points="3072.000,2275.556 3456.000,2275.556 3456.000,1991.111 3072.000,1991.111 "/>
  <polygon stroke="black" stroke-width="1" fill="rgb(204, 204, 204)" fill-opacity="0.25" points="0.000,1991.111 384.000,1991.111 384.000,1706.667 0.000,1706.667 "/>
  <polygon stroke="black" stroke-width="1" fill="rgb(204, 204, 204)" fill-opacity="0.25" points="384.000,1991.111 768.000,1991.111 768.000,1706.667 384.000,1706.667 "/>
  <polygon stroke="black" stroke-width="1" fill="rgb(204, 204, 204)" fill-opacity="0.25" points="768.000,1991.111 1152.000,1991.111 1152.000,1706.667 768.000,1706.667 "/>
  <polygon stroke="black" stroke-width="1" fill="rgb(204, 204, 204)" fill-opacity="0.25" points="1152.000,1991.111 1536.000,1991.111 1536.000,1706.667 1152.000,1706.667 "/>
  <polygon stroke="black" stroke-width="1" fill="rgb(204, 204, 204)" fill-opacity="0.25" points="1536.000,1991.111 1920.000,1991.111 1920.000,1706.667 1536.000,1706.667 "/>
  <polygon stroke="black" stroke-width="1" fill="rgb(204, 204, 204)" fill-opacity="0.25" points="1920.000,1991.111 2304.000,1991.111 2304.000,1706.667 1920.000,1706.667 "/>
  <polygon stroke="black" stroke-width="1" fill="rgb(204, 204, 204)" fill-opacity="0.25" points="2304.000,1991.111 2688.000,1991.111 2688.000,1706.667 2304.000,1706.667 "/>
  <polygon stroke="black" stroke-width="1" fill="rgb(204, 204, 204)" fill-opacity="0.25" points="2688.000,1991.111 3072.000,1991.111 3072.000,1706.667 2688.000,1706.667 "/>
  <polygon stroke="black" stroke-width="1" fill="rgb(204, 204, 204)" fill-opacity="0.25" points="3072.000,1991.111 3456.000,1991.111 3456.000,1706.667 3072.000,1706.667 "/>
  <polygon stroke="black" stroke-width="1" fill="rgb(204, 204, 204)" fill-opacity="0.25" points="0.000,1706.667 384.000,1706.667 384.000,1422.222 0.000,1422.222 "/>
  <polygon stroke="black" stroke-width="1" fill="rgb(204, 204, 204)" fill-opacity="0.25" points="384.000,1706.667 768.000,1706.667 768.000,1422.222 384.000,1422.222 "/>
  <polygon stroke="black" stroke-width="1" fill="rgb(204, 204, 204)" fill-opacity="0.25" points="768.000,1706.667 1152.000,1706.667 1152.000,1422.222 768.000,1422.222 "/>
  <polygon stroke="black" stroke-width="1" fill="rgb(204, 204, 204)" fill-opacity="0.25" points="1152.000,1706.667 1536.000,1706.667 1536.000,1422.222 1152.000,1422.222 "/>
  <polygon stroke="black" stroke-width="1" fill="rgb(204, 204, 204)" fill-opacity="0.25" points="1536.000,1706.667 1920.000,1706.667 1920.000,1422.222 1536.000,1422.222 "/>
  <polygon stroke="black" stroke-width="1" fill="rgb(204, 204, 204)" fill-opacity="0.25" points="1920.000,1706.667 2304.000,1706.667 2304.000,1422.222 1920.000,1422.222 "/>
  <polygon stroke="black" stroke-width="1" fill="rgb(204, 204, 204)" fill-opacity="0.25" points="2304.000,1706.667 2688.000,1706.667 2688.000,1422.222 2304.000,1422.222 "/>
  <polygon stroke="black" stroke-width="1" fill="rgb(204, 204, 204)" fill-opacity="0.25" points="2688.000,1706.667 3072.000,1706.667 3072.000,1422.222 2688.000,1422.222 "/>
  <polygon stroke="black" stroke-width="1" fill="rgb(204, 204, 204)" fill-opacity="0.25" points="3072.000,1706.667 3456.000,1706.667 3456.000,1422.222 3072.000,1422.222 "/>
  <polygon stroke="black" stroke-width="1" fill="rgb(204, 204, 204)" fill-opacity="0.25" points="0.000,1422.222 384.000,1422.222 384.000,1137.778 0.000,1137.778 "/>
  <polygon stroke="black" stroke-width="1" fill="rgb(204, 204, 204)" fill-opacity="0.25" points="384.000,1422.222 768.000,1422.222 768.000,1137.778 384.000,1137.778 "/>
  <polygon stroke="black" stroke-width="1" fill="rgb(204, 204, 204)" fill-opacity="0.25" points="768.000,1422.222 1152.000,1422.222 1152.000,1137.778 768.000,1137.778 "/>
  <polygon stroke="black" stroke-width="1" fill="rgb(204, 204, 204)" fill-opacity="0.25" points="1152.000,1422.222 1536.000,1422.222 1536.000,1137.778 1152.000,1137.778 "/>
  <polygon stroke="black" stroke-width="1" fill="rgb(204, 204, 204)" fill-opacity="0.25" points="1536.000,1422.222 1920.000,1422.222 1920.000,1137.778 1536.000,1137.778 "/>
  <polygon stroke="black" stroke-width="1" fill="rgb(204, 204, 204)" fill-opacity="0.25" points="1920.000,1422.222 2304.000,1422.222 2304.000,1137.778 1920.000,1137.778 "/>
  <polygon stroke="black" stroke-width="1" fill="rgb(204, 204, 204)" fill-opacity="0.25" points="2304.000,1422.222 2688.000,1422.222 2688.000,1137.778 2304.000,1137.778 "/>
  <polygon stroke="black" stroke-width="1" fill="rgb(204, 204, 204)" fill-opacity="0.25" points="2688.000,1422.222 3072.000,1422.222 3072.000,1137.778 2688.000,1137.778 "/>
  <polygon stroke="black" stroke-width="1" fill="rgb(204, 204, 204)" fill-opacity="0.25" points="3072.000,1422.222 3456.000,1422.222 3456.000,1137.778 3072.000,1137.778 "/>
  <polygon stroke="black" stroke-width="1" fill="rgb(204, 204, 204)" fill-opacity="0.25" points="0.000,1137.778 384.000,1137.778 384.000,853.333 0.000,853.333 "/>
  <polygon stroke="black" stroke-width="1" fill="rgb(204, 204, 204)" fill-opacity="0.25" points="384.000,1137.778 768.000,1137.778 768.000,853.333 384.000,853.333 "/>
  <polygon stroke="black" stroke-width="1" fill="rgb(204, 204, 204)" fill-opacity="0.25" points="768.000,1137.778 1152.000,1137.778 1152.000,853.333 768.000,853.333 "/>
  <polygon stroke="black" stroke-width="1" fill="rgb(204, 204, 204)" fill-opacity="0.25" points="1152.000,1137.778 1536.000,1137.778 1536.000,853.333 1152.000,853.333 "/>
  <polygon stroke="black" stroke-width="1" fill="rgb(204, 204, 204)" fill-opacity="0.25" points="1536.000,1137.778 1920.000,1137.778 1920.000,853.333 1536.000,853.333 "/>
  <polygon stroke="black" stroke-width="1" fill="rgb(204, 204, 204)" fill-opacity="0.25" points="1920.000,1137.778 2304.000,1137.778 2304.000,853.333 1920.000,853.333 "/>
  <polygon stroke="black" stroke-width="1" fill="rgb(204, 204, 204)" fill-opacity="0.25" points="2304.000,1137.778 2688.000,1137.778 2688.000,853.333 2304.000,853.333 "/>
  <polygon stroke="black" stroke-width="1" fill="rgb(204, 204, 204)" fill-opacity="0.25" points="2688.000,1137.778 3072.000,1137.778 3072.000,853.333 2688.000,853.333 "/>
  <polygon stroke="black" stroke-width="1" fill="rgb(204, 204, 204)" fill-opacity="0.25" points="3072.000,1137.778 3456.000,1137.778 3456.000,853.333 3072.000,853.333 "/>
  <polygon stroke="black" stroke-width="1" fill="rgb(204, 204, 204)" fill-opacity="0.25" points="0.000,853.333 384.000,853.333 384.000,568.889 0.000,568.889 "/>
  <polygon stroke="black" stroke-width="1" fill="rgb(204, 204, 204)" fill-opacity="0.25" points="384.000,853.333 768.000,853.333 768.000,568.889 384.000,568.889 "/>
  <polygon stroke="black" stroke-width="1" fill="rgb(204, 204, 204)" fill-opacity="0.25" points="768.000,853.333 1152.000,853.333 1152.000,568.889 768.000,568.889 "/>
  <polygon stroke="black" stroke-width="1" fill="rgb(204, 204, 204)" fill-opacity="0.25" points="1152.000,853.333 1536.000,853.333 1536.000,568.889 1152.000,568.889 "/>
  <polygon stroke="black" stroke-width="1" fill="rgb(204, 204, 204)" fill-opacity="0.25" points="1536.000,853.333 1920.000,853.333 1920.000,568.889 1536.000,568.889 "/>
  <polygon stroke="black" stroke-width="1" fill="rgb(204, 204, 204)" fill-opacity="0.25" points="1920.000,853.333 2304.000,853.333 2304.000,568.889 1920.000,568.889 "/>
  <polygon stroke="black" stroke-width="1" fill="rgb(204, 204, 204)" fill-opacity="0.25" points="2304.000,853.333 2688.000,853.333 2688.000,568.889 2304.000,568.889 "/>
  <polygon stroke="black" stroke-width="1" fill="rgb(204, 204, 204)" fill-opacity="0.25" points="2688.000,853.333 3072.000,853.333 3072.000,568.889 2688.000,568.889 "/>
  <polygon stroke="black" stroke-width="1" fill="rgb(204, 204, 204)" fill-opacity="0.25" points="3072.000,853.333 3456.000,853.333 3456.000,568.889 3072.000,568.889 "/>
  <polygon stroke="black" stroke-width="1" fill="rgb(204, 204, 204)" fill-opacity="0.25" points="0.000,568.889 384.000,568.889 384.000,284.444 0.000,284.444 "/>
  <polygon stroke="black" stroke-width="1" fill="rgb(204, 204, 204)" fill-opacity="0.25" points="384.000,568.889 768.000,568.889 768.000,284.444 384.000,284.444 "/>
  <polygon stroke="black" stroke-width="1" fill="rgb(204, 204, 204)" fill-opacity="0.25" points="768.000,568.889 1152.000,568.889 1152.000,284.444 768.000,284.444 "/>
  <polygon stroke="black" stroke-width="1" fill="rgb(204, 204, 204)" fill-opacity="0.25" points="1152.000,568.889 1536.000,568.889 1536.000,284.444 1152.000,284.444 "/>
  <polygon stroke="black" stroke-width="1" fill="rgb(204, 204, 204)" fill-opacity="0.25" points="1536.000,568.889 1920.000,568.889 1920.000,284.444 1536.000,284.444 "/>
  <polygon stroke="black" stroke-width="1" fill="rgb(204, 204, 204)" fill-opacity="0.25" points="1920.000,568.889 2304.000,568.889 2304.000,284.444 1920.000,284.444 "/>
  <polygon stroke="black" stroke-width="1" fill="rgb(204, 204, 204)" fill-opacity="0.25" points="2304.000,568.889 2688.000,568.889 2688.000,284.444 2304.000,284.444 "/>
  <polygon stroke="black" stroke-width="1" fill="rgb(204, 204, 204)" fill-opacity="0.25" points="2688.000,568.889 3072.000,568.889 3072.000,284.444 2688.000,284.444 "/>
  <polygon stroke="black" stroke-width="1" fill="rgb(204, 204, 204)" fill-opacity="0.25" points="3072.000,568.889 3456.000,568.889 3456.000,284.444 3072.000,284.444 "/>
  <polygon stroke="black" stroke-width="1" fill="rgb(204, 204, 204)" fill-opacity="0.25" points="128 128 126.366 0 0 0.257 0 127.777"/>
  <polygon stroke="black" stroke-width="1" fill="rgb(204, 204, 204)" fill-opacity="0.25" points="384.000,284.444 768.000,284.444 768.000,0.000 384.000,0.000 "/>
  <polygon stroke="black" stroke-width="1" fill="rgb(204, 204, 204)" fill-opacity="0.25" points="768.000,284.444 1152.000,284.444 1152.000,0.000 768.000,0.000 "/>
  <polygon stroke="black" stroke-width="1" fill="rgb(204, 204, 204)" fill-opacity="0.25" points="1152.000,284.444 1536.000,284.444 1536.000,0.000 1152.000,0.000 "/>
  <polygon stroke="black" stroke-width="1" fill="rgb(204, 204, 204)" fill-opacity="0.25" points="1536.000,284.444 1920.000,284.444 1920.000,0.000 1536.000,0.000 "/>
  <polygon stroke="black" stroke-width="1" fill="rgb(204, 204, 204)" fill-opacity="0.25" points="1920.000,284.444 2304.000,284.444 2304.000,0.000 1920.000,0.000 "/>
  <polygon stroke="black" stroke-width="1" fill="rgb(204, 204, 204)" fill-opacity="0.25" points="2304.000,284.444 2688.000,284.444 2688.000,0.000 2304.000,0.000 "/>
  <polygon stroke="black" stroke-width="1" fill="rgb(204, 204, 204)" fill-opacity="0.25" points="2688.000,284.444 3072.000,284.444 3072.000,0.000 2688.000,0.000 "/>
  <polygon stroke="black" stroke-width="1" fill="rgb(204, 204, 204)" fill-opacity="0.25" points="3072.000,284.444 3456.000,284.444 3456.000,0.000 3072.000,0.000 "/>
</svg>